<?xml version="1.0" encoding="UTF-8" standalone="no" ?>
<!DOCTYPE svg PUBLIC "-//W3C//DTD SVG 1.1//EN" "http://www.w3.org/Graphics/SVG/1.1/DTD/svg11.dtd">
<svg
    xmlns="http://www.w3.org/2000/svg"
    xmlns:xlink="http://www.w3.org/1999/xlink"
    version="1.1"
    width="1080"
    height="1080"
    viewBox="0 0 1080 1080"
    xml:space="preserve">
<!-- heart -->
<path style="stroke: rgb(221,170,170); stroke-width: 12; fill: rgb(255,255,255);" transform="matrix(6.9 0 0 6.9 121 50)" d="M 60.83 17.19 C 68.84 8.84 74.45 1.62 86.79 0.21 C 109.96 -2.45 131.27 21.27 119.57 44.62 C 116.24 51.27 109.46 59.18 101.96 66.94 C 93.73 75.46 84.62 83.81 78.24 90.14 L 60.84 107.4 L 46.46 93.56 C 29.16 76.9 0.95 55.93 0.02 29.95 C -0.63 11.75 13.73 0.09 30.25 0.3 C 45.01 0.5 51.22 7.84 60.83 17.19 L 60.83 17.19 L 60.83 17.19 z" />
<!-- bow -->
<path style="fill: rgb(221,170,170);" transform="matrix(1.66 0 0 0.84 -84 580)" d="M 429.8 339.1 C 441.1 307 441 274.4 432.8 241.6 C 432 238.3 430.9 235.4 434.2 232.2 C 463.7 203.5 495.1 177.7 533.8 162.3 C 549.1 156.2 564.9 152 581.6 152.5 C 586.9 152.9 592.4 152.7 597.6 153.8 C 625 159.4 639.1 178.2 638.5 208.1 C 638.3 219.7 637.4 231.4 633.5 242.3 C 626.7 261.2 627.9 279.6 633.5 298.4 C 638.5 315.4 639.6 332.7 635.9 350.2 C 629.1 381.5 604.6 402 572.1 402.6 C 536.2 403.2 503.6 391.3 472.7 374 C 458.6 366.1 445.2 357.2 432.5 347.3 C 429.7 344.8 428.3 343.2 429.8 339.1 z M 686 472.1 C 662.5 453.3 639 434.6 615.3 415.9 C 611.3 412.8 607.4 409.9 601.4 411.1 C 541.3 423 485.4 400.3 438.1 364.3 C 433.6 360.9 429.1 357.5 423.6 355.6 C 417.2 353.5 394.5 355.6 395.5 365.7 C 395.7 367.9 397 369.8 398.2 371.7 C 428.5 418 459.8 463.6 497 504.8 C 524 534.6 553.1 562.5 584.4 587.9 C 586.9 590 589.1 592.9 593.4 593.1 C 593.4 590.7 593.4 588.9 593.4 587.1 C 593.9 555.1 592.4 523.1 588 491.4 C 587.1 484.8 588.7 483.5 595 484.8 C 602.9 486.3 610.9 487.1 619 487.7 C 644.6 489.8 669.8 487.8 695.5 480.9 C 692.9 476.2 689.1 474.5 686 472.1 z M 423.5 325.1 C 430 298.2 429.8 271.4 422.5 244.7 C 421.1 239.7 418.9 234.9 414.2 232.2 C 390.5 218.7 366.4 217.2 342.1 230.3 C 335.8 233.7 332.1 239.2 331.1 246.3 C 328.6 263 326.9 279.8 326.8 297.3 C 327.1 302.7 327.3 308.6 327.9 314.4 C 329.3 330.6 337.9 341 353.4 346.1 C 368.9 351.1 384.4 350.8 400.3 347.6 C 413.3 345 420.5 337.4 423.5 325.1 z M 125.8 276.9 C 123.9 291.8 118.2 305.9 116.7 321 C 113.7 353.3 127 386.1 158.6 397.7 C 186.6 408 217 400.8 244 391.2 C 272.6 381 298.5 364.7 322.7 346.5 C 326 344 325.9 341.6 324.6 338.2 C 312.9 306.3 313.9 273.9 321.9 241.5 C 323.2 236.4 322.2 233.6 318.7 230.3 C 299 211.6 278.5 193.8 255.2 179.5 C 217.8 156.6 129.3 126.4 117.3 193.6 C 114.1 211.8 117 229.5 122.4 246.8 C 125.6 256.8 127.1 266.6 125.8 276.9 z M 352.6 358.5 C 339.9 351.3 332.9 351.7 319.6 362 C 297.6 379.1 273.4 393.5 247 402.8 C 221.9 411.7 190.2 418.9 163.7 412.8 C 153.8 410.5 146.2 412.7 138.5 418.9 C 115.3 437.7 91.9 456.1 68.5 474.7 C 64.2 478.1 59.8 481.5 54.5 485.7 C 80.1 492.7 105.7 495.2 131.9 491.7 C 142 490.4 151.9 488.6 161.7 486.9 C 164 486.5 166.5 486.9 168.2 488.4 C 172.1 491.9 167.9 505.7 167.5 510.3 C 166.5 519.9 165.6 529.6 164.6 539.2 C 162.7 558.6 160.7 578 158.8 597.5 C 162.3 597 163.8 594.5 165.7 592.8 C 226.8 536.5 282 473.6 330 405.7 C 338.6 393.6 346.9 381.3 355.1 368.9 C 358.6 363.7 357.6 361.4 352.6 358.5 z" />
<!-- grip -->
<rect width="148" height="230" x="466" y="850" style="fill: rgb(221,170,170);" />
<!-- mic -->
<circle r="16" cx="540" cy="950" style="fill: rgb(0,0,0);" />
</svg>
