<?xml version="1.0" encoding="UTF-8" standalone="no" ?>
<!DOCTYPE svg PUBLIC "-//W3C//DTD SVG 1.1//EN" "http://www.w3.org/Graphics/SVG/1.1/DTD/svg11.dtd">
<svg
    xmlns="http://www.w3.org/2000/svg"
    xmlns:xlink="http://www.w3.org/1999/xlink"
    version="1.1"
    width="1080"
    height="1080"
    viewBox="0 0 1080 1080"
    xml:space="preserve">
<desc>Created with Fabric.js 5.2.4</desc>
<g transform="matrix(6.9 0 0 6.9 550 420)">
    <path style="stroke: rgb(221,170,170); stroke-width: 80; stroke-dasharray: none; stroke-linecap: butt; stroke-dashoffset: 0; stroke-linejoin: miter; stroke-miterlimit: 4; fill: rgb(255,255,255); fill-rule: nonzero; opacity: 1;" vector-effect="non-scaling-stroke"  transform=" translate(-61.44, -53.7)" d="M 60.83 17.19 C 68.84 8.84 74.45 1.62 86.79 0.21 C 109.96000000000001 -2.45 131.27 21.27 119.57000000000001 44.62 C 116.24000000000001 51.269999999999996 109.46000000000001 59.18 101.96000000000001 66.94 C 93.73 75.46 84.62 83.81 78.24000000000001 90.14 L 60.84000000000001 107.4 L 46.46 93.56 C 29.16 76.9 0.95 55.93 0.02 29.95 C -0.63 11.75 13.73 0.09 30.25 0.3 C 45.01 0.5 51.22 7.84 60.83 17.19 L 60.83 17.19 L 60.83 17.19 z" stroke-linecap="round" />
</g>
<g transform="matrix(1.66 0 0 0.84 540 880)">
    <path style="stroke: rgb(0,0,0); stroke-width: 0; stroke-dasharray: none; stroke-linecap: butt; stroke-dashoffset: 0; stroke-linejoin: miter; stroke-miterlimit: 4; fill: rgb(221,170,170); fill-rule: nonzero; opacity: 1;" vector-effect="non-scaling-stroke"  transform=" translate(-375, -374.98)" d="M 429.8 339.1 C 441.1 307 441 274.40000000000003 432.8 241.60000000000002 C 432 238.3 430.90000000000003 235.40000000000003 434.2 232.20000000000002 C 463.7 203.50000000000003 495.09999999999997 177.70000000000002 533.8 162.3 C 549.0999999999999 156.20000000000002 564.9 152 581.5999999999999 152.5 C 586.8999999999999 152.9 592.3999999999999 152.7 597.5999999999999 153.8 C 624.9999999999999 159.4 639.0999999999999 178.20000000000002 638.4999999999999 208.10000000000002 C 638.2999999999998 219.70000000000002 637.3999999999999 231.40000000000003 633.4999999999999 242.3 C 626.6999999999999 261.2 627.8999999999999 279.6 633.4999999999999 298.40000000000003 C 638.4999999999999 315.40000000000003 639.5999999999999 332.70000000000005 635.8999999999999 350.20000000000005 C 629.1999999999998 381.50000000000006 604.5999999999999 402.00000000000006 572.1999999999998 402.6 C 536.1999999999998 403.20000000000005 503.5999999999998 391.3 472.6999999999998 374 C 458.5999999999998 366.1 445.1999999999998 357.2 432.49999999999983 347.3 C 429.7 344.8 428.3 343.2 429.8 339.1 z M 686 472.1 C 662.5 453.3 639 434.6 615.3 415.90000000000003 C 611.3 412.8 607.4 409.90000000000003 601.4 411.1 C 541.3 423 485.4 400.3 438.09999999999997 364.3 C 433.59999999999997 360.90000000000003 429.09999999999997 357.5 423.59999999999997 355.6 C 417.2 353.5 394.49999999999994 355.6 395.49999999999994 365.70000000000005 C 395.69999999999993 367.90000000000003 396.99999999999994 369.80000000000007 398.19999999999993 371.70000000000005 C 428.49999999999994 418.00000000000006 459.79999999999995 463.6 496.99999999999994 504.80000000000007 C 524 534.6 553.0999999999999 562.5000000000001 584.4 587.9000000000001 C 586.9 590.0000000000001 589.1 592.9000000000001 593.4 593.1000000000001 C 593.4 590.7000000000002 593.4 588.9000000000001 593.4 587.1000000000001 C 593.9 555.1000000000001 592.4 523.1000000000001 588 491.40000000000015 C 587.1 484.8000000000001 588.7 483.50000000000017 595 484.8000000000001 C 602.9 486.3000000000001 610.9 487.10000000000014 619 487.7000000000001 C 644.6 489.8000000000001 669.8 487.8000000000001 695.5 480.9000000000001 C 692.9 476.2 689.1 474.5 686 472.1 z M 423.5 325.1 C 430 298.20000000000005 429.8 271.40000000000003 422.5 244.70000000000002 C 421.1 239.70000000000002 418.9 234.9 414.2 232.20000000000002 C 390.5 218.70000000000002 366.4 217.20000000000002 342.1 230.3 C 335.8 233.70000000000002 332.1 239.20000000000002 331.1 246.3 C 328.6 263 326.90000000000003 279.8 326.8 297.3 C 327.1 302.7 327.3 308.6 327.90000000000003 314.40000000000003 C 329.3 330.6 337.90000000000003 341.00000000000006 353.40000000000003 346.1 C 368.90000000000003 351.1 384.40000000000003 350.8 400.3 347.6 C 413.3 345 420.5 337.4 423.5 325.1 z M 125.8 276.9 C 123.89999999999999 291.79999999999995 118.2 305.9 116.7 321 C 113.7 353.3 127 386.1 158.6 397.7 C 186.6 408 217 400.8 244 391.2 C 272.6 381 298.5 364.7 322.7 346.5 C 326 344 325.9 341.6 324.59999999999997 338.2 C 312.9 306.3 313.9 273.9 321.9 241.5 C 323.2 236.4 322.2 233.6 318.7 230.3 C 299 211.60000000000002 278.5 193.8 255.2 179.5 C 217.79999999999998 156.6 129.29999999999998 126.4 117.29999999999998 193.6 C 114.09999999999998 211.79999999999998 116.99999999999999 229.5 122.39999999999998 246.8 C 125.6 256.8 127.1 266.6 125.8 276.9 z M 352.6 358.5 C 339.90000000000003 351.3 332.90000000000003 351.7 319.6 362 C 297.6 379.1 273.40000000000003 393.5 247.00000000000003 402.8 C 221.90000000000003 411.7 190.20000000000005 418.90000000000003 163.70000000000005 412.8 C 153.80000000000004 410.5 146.20000000000005 412.7 138.50000000000006 418.90000000000003 C 115.30000000000005 437.70000000000005 91.90000000000006 456.1 68.50000000000006 474.70000000000005 C 64.20000000000006 478.1 59.800000000000054 481.50000000000006 54.50000000000006 485.70000000000005 C 80.10000000000005 492.70000000000005 105.70000000000006 495.20000000000005 131.90000000000006 491.70000000000005 C 142.00000000000006 490.40000000000003 151.90000000000006 488.6 161.70000000000007 486.90000000000003 C 164.00000000000009 486.50000000000006 166.50000000000009 486.90000000000003 168.20000000000007 488.40000000000003 C 172.10000000000008 491.90000000000003 167.90000000000006 505.70000000000005 167.50000000000009 510.3 C 166.50000000000009 519.9 165.60000000000008 529.6 164.60000000000008 539.2 C 162.70000000000007 558.6 160.70000000000007 578 158.80000000000007 597.5 C 162.30000000000007 597 163.80000000000007 594.5 165.70000000000007 592.8 C 226.8 536.5 282 473.6 330 405.7 C 338.6 393.59999999999997 346.9 381.3 355.1 368.9 C 358.6 363.7 357.6 361.4 352.6 358.5 z" stroke-linecap="round" />
</g>
</svg>